<svg width="406" height="196" viewBox="0 0 406 196" fill="none" xmlns="http://www.w3.org/2000/svg">
<g clip-path="url(#clip0_514_2)">
<g filter="url(#filter0_d_514_2)">
<mask id="path-1-outside-1_514_2" maskUnits="userSpaceOnUse" x="14" y="32" width="368" height="150" fill="black">
<rect fill="white" x="14" y="32" width="368" height="150"/>
<path d="M94.668 180H16.66V43.78H43.12V156.088H85.064V128.844H110.74V163.732L94.668 180ZM145.187 73.964H202.223L218.295 90.036V163.732L202.223 180H145.187L129.115 163.732V90.036L145.187 73.964ZM192.815 156.872V97.092H154.595V156.872H192.815ZM269.835 180H244.355V34.764H269.835V117.868L304.135 88.272V73.964H329.811V96.112L302.959 118.848L331.379 157.068V180H305.703V163.144L285.123 134.136L269.835 147.072V180ZM379.525 57.108H353.457V35.352H379.525V57.108ZM379.133 180H353.653V73.964H379.133V180Z"/>
</mask>
<path d="M94.668 180H16.66V43.78H43.12V156.088H85.064V128.844H110.74V163.732L94.668 180ZM145.187 73.964H202.223L218.295 90.036V163.732L202.223 180H145.187L129.115 163.732V90.036L145.187 73.964ZM192.815 156.872V97.092H154.595V156.872H192.815ZM269.835 180H244.355V34.764H269.835V117.868L304.135 88.272V73.964H329.811V96.112L302.959 118.848L331.379 157.068V180H305.703V163.144L285.123 134.136L269.835 147.072V180ZM379.525 57.108H353.457V35.352H379.525V57.108ZM379.133 180H353.653V73.964H379.133V180Z" fill="#194B07"/>
<path d="M94.668 180V182H95.5035L96.0908 181.406L94.668 180ZM16.66 180H14.66V182H16.66V180ZM16.66 43.78V41.78H14.66V43.78H16.66ZM43.12 43.78H45.12V41.78H43.12V43.78ZM43.12 156.088H41.12V158.088H43.12V156.088ZM85.064 156.088V158.088H87.064V156.088H85.064ZM85.064 128.844V126.844H83.064V128.844H85.064ZM110.74 128.844H112.74V126.844H110.74V128.844ZM110.74 163.732L112.163 165.138L112.74 164.553V163.732H110.74ZM94.668 178H16.66V182H94.668V178ZM18.66 180V43.78H14.66V180H18.66ZM16.66 45.78H43.12V41.78H16.66V45.78ZM41.12 43.78V156.088H45.12V43.78H41.12ZM43.12 158.088H85.064V154.088H43.12V158.088ZM87.064 156.088V128.844H83.064V156.088H87.064ZM85.064 130.844H110.74V126.844H85.064V130.844ZM108.74 128.844V163.732H112.74V128.844H108.74ZM109.317 162.326L93.2452 178.594L96.0908 181.406L112.163 165.138L109.317 162.326ZM145.187 73.964V71.964H144.359L143.773 72.5498L145.187 73.964ZM202.223 73.964L203.637 72.5498L203.051 71.964H202.223V73.964ZM218.295 90.036H220.295V89.2076L219.709 88.6218L218.295 90.036ZM218.295 163.732L219.718 165.138L220.295 164.553V163.732H218.295ZM202.223 180V182H203.059L203.646 181.406L202.223 180ZM145.187 180L143.764 181.406L144.351 182H145.187V180ZM129.115 163.732H127.115V164.553L127.692 165.138L129.115 163.732ZM129.115 90.036L127.701 88.6218L127.115 89.2076V90.036H129.115ZM192.815 156.872V158.872H194.815V156.872H192.815ZM192.815 97.092H194.815V95.092H192.815V97.092ZM154.595 97.092V95.092H152.595V97.092H154.595ZM154.595 156.872H152.595V158.872H154.595V156.872ZM145.187 75.964H202.223V71.964H145.187V75.964ZM200.809 75.3782L216.881 91.4502L219.709 88.6218L203.637 72.5498L200.809 75.3782ZM216.295 90.036V163.732H220.295V90.036H216.295ZM216.872 162.326L200.8 178.594L203.646 181.406L219.718 165.138L216.872 162.326ZM202.223 178H145.187V182H202.223V178ZM146.61 178.594L130.538 162.326L127.692 165.138L143.764 181.406L146.61 178.594ZM131.115 163.732V90.036H127.115V163.732H131.115ZM130.529 91.4502L146.601 75.3782L143.773 72.5498L127.701 88.6218L130.529 91.4502ZM194.815 156.872V97.092H190.815V156.872H194.815ZM192.815 95.092H154.595V99.092H192.815V95.092ZM152.595 97.092V156.872H156.595V97.092H152.595ZM154.595 158.872H192.815V154.872H154.595V158.872ZM269.835 180V182H271.835V180H269.835ZM244.355 180H242.355V182H244.355V180ZM244.355 34.764V32.764H242.355V34.764H244.355ZM269.835 34.764H271.835V32.764H269.835V34.764ZM269.835 117.868H267.835V122.235L271.142 119.382L269.835 117.868ZM304.135 88.272L305.442 89.7862L306.135 89.1879V88.272H304.135ZM304.135 73.964V71.964H302.135V73.964H304.135ZM329.811 73.964H331.811V71.964H329.811V73.964ZM329.811 96.112L331.104 97.6383L331.811 97.0392V96.112H329.811ZM302.959 118.848L301.667 117.322L300.234 118.535L301.354 120.041L302.959 118.848ZM331.379 157.068H333.379V156.406L332.984 155.875L331.379 157.068ZM331.379 180V182H333.379V180H331.379ZM305.703 180H303.703V182H305.703V180ZM305.703 163.144H307.703V162.507L307.335 161.987L305.703 163.144ZM285.123 134.136L286.755 132.979L285.494 131.202L283.831 132.609L285.123 134.136ZM269.835 147.072L268.543 145.545L267.835 146.144V147.072H269.835ZM269.835 178H244.355V182H269.835V178ZM246.355 180V34.764H242.355V180H246.355ZM244.355 36.764H269.835V32.764H244.355V36.764ZM267.835 34.764V117.868H271.835V34.764H267.835ZM271.142 119.382L305.442 89.7862L302.829 86.7578L268.529 116.354L271.142 119.382ZM306.135 88.272V73.964H302.135V88.272H306.135ZM304.135 75.964H329.811V71.964H304.135V75.964ZM327.811 73.964V96.112H331.811V73.964H327.811ZM328.519 94.5856L301.667 117.322L304.252 120.374L331.104 97.6383L328.519 94.5856ZM301.354 120.041L329.774 158.261L332.984 155.875L304.564 117.655L301.354 120.041ZM329.379 157.068V180H333.379V157.068H329.379ZM331.379 178H305.703V182H331.379V178ZM307.703 180V163.144H303.703V180H307.703ZM307.335 161.987L286.755 132.979L283.492 135.293L304.072 164.301L307.335 161.987ZM283.831 132.609L268.543 145.545L271.127 148.599L286.415 135.663L283.831 132.609ZM267.835 147.072V180H271.835V147.072H267.835ZM379.525 57.108V59.108H381.525V57.108H379.525ZM353.457 57.108H351.457V59.108H353.457V57.108ZM353.457 35.352V33.352H351.457V35.352H353.457ZM379.525 35.352H381.525V33.352H379.525V35.352ZM379.133 180V182H381.133V180H379.133ZM353.653 180H351.653V182H353.653V180ZM353.653 73.964V71.964H351.653V73.964H353.653ZM379.133 73.964H381.133V71.964H379.133V73.964ZM379.525 55.108H353.457V59.108H379.525V55.108ZM355.457 57.108V35.352H351.457V57.108H355.457ZM353.457 37.352H379.525V33.352H353.457V37.352ZM377.525 35.352V57.108H381.525V35.352H377.525ZM379.133 178H353.653V182H379.133V178ZM355.653 180V73.964H351.653V180H355.653ZM353.653 75.964H379.133V71.964H353.653V75.964ZM377.133 73.964V180H381.133V73.964H377.133Z" fill="white" mask="url(#path-1-outside-1_514_2)"/>
</g>
</g>
<defs>
<filter id="filter0_d_514_2" x="16.6602" y="24.7639" width="372.865" height="155.236" filterUnits="userSpaceOnUse" color-interpolation-filters="sRGB">
<feFlood flood-opacity="0" result="BackgroundImageFix"/>
<feColorMatrix in="SourceAlpha" type="matrix" values="0 0 0 0 0 0 0 0 0 0 0 0 0 0 0 0 0 0 127 0" result="hardAlpha"/>
<feOffset dx="10" dy="-10"/>
<feComposite in2="hardAlpha" operator="out"/>
<feColorMatrix type="matrix" values="0 0 0 0 0.0980392 0 0 0 0 0.294118 0 0 0 0 0.027451 0 0 0 1 0"/>
<feBlend mode="normal" in2="BackgroundImageFix" result="effect1_dropShadow_514_2"/>
<feBlend mode="normal" in="SourceGraphic" in2="effect1_dropShadow_514_2" result="shape"/>
</filter>
<clipPath id="clip0_514_2">
<rect width="406" height="196" fill="white"/>
</clipPath>
</defs>
</svg>
