<svg width="374" height="156" viewBox="0 0 374 156" fill="none" xmlns="http://www.w3.org/2000/svg">
<g filter="url(#filter0_d_513_2)">
<mask id="path-1-outside-1_513_2" maskUnits="userSpaceOnUse" x="-2" y="8" width="368" height="150" fill="black">
<rect fill="white" x="-2" y="8" width="368" height="150"/>
<path d="M78.668 156H0.66V19.78H27.12V132.088H69.064V104.844H94.74V139.732L78.668 156ZM129.187 49.964H186.223L202.295 66.036V139.732L186.223 156H129.187L113.115 139.732V66.036L129.187 49.964ZM176.815 132.872V73.092H138.595V132.872H176.815ZM253.835 156H228.355V10.764H253.835V93.868L288.135 64.272V49.964H313.811V72.112L286.959 94.848L315.379 133.068V156H289.703V139.144L269.123 110.136L253.835 123.072V156ZM363.525 33.108H337.457V11.352H363.525V33.108ZM363.133 156H337.653V49.964H363.133V156Z"/>
</mask>
<path d="M78.668 156H0.66V19.78H27.12V132.088H69.064V104.844H94.74V139.732L78.668 156ZM129.187 49.964H186.223L202.295 66.036V139.732L186.223 156H129.187L113.115 139.732V66.036L129.187 49.964ZM176.815 132.872V73.092H138.595V132.872H176.815ZM253.835 156H228.355V10.764H253.835V93.868L288.135 64.272V49.964H313.811V72.112L286.959 94.848L315.379 133.068V156H289.703V139.144L269.123 110.136L253.835 123.072V156ZM363.525 33.108H337.457V11.352H363.525V33.108ZM363.133 156H337.653V49.964H363.133V156Z" fill="#194B07"/>
<path d="M78.668 156V158H79.5035L80.0908 157.406L78.668 156ZM0.66 156H-1.34V158H0.66V156ZM0.66 19.78V17.78H-1.34V19.78H0.66ZM27.12 19.78H29.12V17.78H27.12V19.78ZM27.12 132.088H25.12V134.088H27.12V132.088ZM69.064 132.088V134.088H71.064V132.088H69.064ZM69.064 104.844V102.844H67.064V104.844H69.064ZM94.74 104.844H96.74V102.844H94.74V104.844ZM94.74 139.732L96.1628 141.138L96.74 140.553V139.732H94.74ZM78.668 154H0.66V158H78.668V154ZM2.66 156V19.78H-1.34V156H2.66ZM0.66 21.78H27.12V17.78H0.66V21.78ZM25.12 19.78V132.088H29.12V19.78H25.12ZM27.12 134.088H69.064V130.088H27.12V134.088ZM71.064 132.088V104.844H67.064V132.088H71.064ZM69.064 106.844H94.74V102.844H69.064V106.844ZM92.74 104.844V139.732H96.74V104.844H92.74ZM93.3172 138.326L77.2452 154.594L80.0908 157.406L96.1628 141.138L93.3172 138.326ZM129.187 49.964V47.964H128.359L127.773 48.5498L129.187 49.964ZM186.223 49.964L187.637 48.5498L187.051 47.964H186.223V49.964ZM202.295 66.036H204.295V65.2076L203.709 64.6218L202.295 66.036ZM202.295 139.732L203.718 141.138L204.295 140.553V139.732H202.295ZM186.223 156V158H187.059L187.646 157.406L186.223 156ZM129.187 156L127.764 157.406L128.351 158H129.187V156ZM113.115 139.732H111.115V140.553L111.692 141.138L113.115 139.732ZM113.115 66.036L111.701 64.6218L111.115 65.2076V66.036H113.115ZM176.815 132.872V134.872H178.815V132.872H176.815ZM176.815 73.092H178.815V71.092H176.815V73.092ZM138.595 73.092V71.092H136.595V73.092H138.595ZM138.595 132.872H136.595V134.872H138.595V132.872ZM129.187 51.964H186.223V47.964H129.187V51.964ZM184.809 51.3782L200.881 67.4502L203.709 64.6218L187.637 48.5498L184.809 51.3782ZM200.295 66.036V139.732H204.295V66.036H200.295ZM200.872 138.326L184.8 154.594L187.646 157.406L203.718 141.138L200.872 138.326ZM186.223 154H129.187V158H186.223V154ZM130.61 154.594L114.538 138.326L111.692 141.138L127.764 157.406L130.61 154.594ZM115.115 139.732V66.036H111.115V139.732H115.115ZM114.529 67.4502L130.601 51.3782L127.773 48.5498L111.701 64.6218L114.529 67.4502ZM178.815 132.872V73.092H174.815V132.872H178.815ZM176.815 71.092H138.595V75.092H176.815V71.092ZM136.595 73.092V132.872H140.595V73.092H136.595ZM138.595 134.872H176.815V130.872H138.595V134.872ZM253.835 156V158H255.835V156H253.835ZM228.355 156H226.355V158H228.355V156ZM228.355 10.764V8.76399H226.355V10.764H228.355ZM253.835 10.764H255.835V8.76399H253.835V10.764ZM253.835 93.868H251.835V98.2353L255.142 95.3822L253.835 93.868ZM288.135 64.272L289.442 65.7862L290.135 65.1879V64.272H288.135ZM288.135 49.964V47.964H286.135V49.964H288.135ZM313.811 49.964H315.811V47.964H313.811V49.964ZM313.811 72.112L315.104 73.6383L315.811 73.0392V72.112H313.811ZM286.959 94.848L285.667 93.3216L284.234 94.5348L285.354 96.0414L286.959 94.848ZM315.379 133.068H317.379V132.406L316.984 131.875L315.379 133.068ZM315.379 156V158H317.379V156H315.379ZM289.703 156H287.703V158H289.703V156ZM289.703 139.144H291.703V138.507L291.335 137.987L289.703 139.144ZM269.123 110.136L270.755 108.979L269.494 107.202L267.831 108.609L269.123 110.136ZM253.835 123.072L252.543 121.545L251.835 122.144V123.072H253.835ZM253.835 154H228.355V158H253.835V154ZM230.355 156V10.764H226.355V156H230.355ZM228.355 12.764H253.835V8.76399H228.355V12.764ZM251.835 10.764V93.868H255.835V10.764H251.835ZM255.142 95.3822L289.442 65.7862L286.829 62.7578L252.529 92.3538L255.142 95.3822ZM290.135 64.272V49.964H286.135V64.272H290.135ZM288.135 51.964H313.811V47.964H288.135V51.964ZM311.811 49.964V72.112H315.811V49.964H311.811ZM312.519 70.5856L285.667 93.3216L288.252 96.3743L315.104 73.6383L312.519 70.5856ZM285.354 96.0414L313.774 134.261L316.984 131.875L288.564 93.6546L285.354 96.0414ZM313.379 133.068V156H317.379V133.068H313.379ZM315.379 154H289.703V158H315.379V154ZM291.703 156V139.144H287.703V156H291.703ZM291.335 137.987L270.755 108.979L267.492 111.293L288.072 140.301L291.335 137.987ZM267.831 108.609L252.543 121.545L255.127 124.599L270.415 111.663L267.831 108.609ZM251.835 123.072V156H255.835V123.072H251.835ZM363.525 33.108V35.108H365.525V33.108H363.525ZM337.457 33.108H335.457V35.108H337.457V33.108ZM337.457 11.352V9.35199H335.457V11.352H337.457ZM363.525 11.352H365.525V9.35199H363.525V11.352ZM363.133 156V158H365.133V156H363.133ZM337.653 156H335.653V158H337.653V156ZM337.653 49.964V47.964H335.653V49.964H337.653ZM363.133 49.964H365.133V47.964H363.133V49.964ZM363.525 31.108H337.457V35.108H363.525V31.108ZM339.457 33.108V11.352H335.457V33.108H339.457ZM337.457 13.352H363.525V9.35199H337.457V13.352ZM361.525 11.352V33.108H365.525V11.352H361.525ZM363.133 154H337.653V158H363.133V154ZM339.653 156V49.964H335.653V156H339.653ZM337.653 51.964H363.133V47.964H337.653V51.964ZM361.133 49.964V156H365.133V49.964H361.133Z" fill="white" mask="url(#path-1-outside-1_513_2)"/>
</g>
<defs>
<filter id="filter0_d_513_2" x="0.660156" y="0.763916" width="372.865" height="155.236" filterUnits="userSpaceOnUse" color-interpolation-filters="sRGB">
<feFlood flood-opacity="0" result="BackgroundImageFix"/>
<feColorMatrix in="SourceAlpha" type="matrix" values="0 0 0 0 0 0 0 0 0 0 0 0 0 0 0 0 0 0 127 0" result="hardAlpha"/>
<feOffset dx="10" dy="-10"/>
<feComposite in2="hardAlpha" operator="out"/>
<feColorMatrix type="matrix" values="0 0 0 0 0.0980392 0 0 0 0 0.294118 0 0 0 0 0.027451 0 0 0 1 0"/>
<feBlend mode="normal" in2="BackgroundImageFix" result="effect1_dropShadow_513_2"/>
<feBlend mode="normal" in="SourceGraphic" in2="effect1_dropShadow_513_2" result="shape"/>
</filter>
</defs>
</svg>
